<svg width="13" height="13" viewBox="0 0 13 13" fill="none" xmlns="http://www.w3.org/2000/svg">
<path d="M6.5 13C5.51725 13.0027 4.54691 12.7804 3.66343 12.35C3.34009 12.1927 3.03029 12.009 2.73719 11.8007L2.64814 11.7357C1.84203 11.1407 1.18297 10.3689 0.721558 9.47956C0.244291 8.55909 -0.00324523 7.53682 3.21246e-05 6.49997C3.21246e-05 2.91014 2.91019 0 6.5 0C10.0898 0 13 2.91014 13 6.49997C13.0032 7.53633 12.7559 8.55811 12.2791 9.47826C11.8183 10.3671 11.1602 11.1386 10.3551 11.7338C10.0514 11.9561 9.72912 12.1518 9.39182 12.3188L9.33982 12.3448C8.45578 12.7775 7.48426 13.0016 6.5 13ZM6.5 9.74995C5.52597 9.74806 4.633 10.2921 4.18797 11.1585C5.64487 11.8801 7.35514 11.8801 8.81203 11.1585V11.1553C8.36645 10.2898 7.47344 9.74698 6.5 9.74995ZM6.5 8.44997C7.90796 8.4518 9.20619 9.21054 9.89882 10.4364L9.90857 10.4279L9.91767 10.4201L9.90662 10.4299L9.90012 10.4351C11.5439 9.01488 12.1317 6.72249 11.3741 4.68655C10.6164 2.65061 8.67299 1.3002 6.50065 1.3002C4.32831 1.3002 2.38489 2.65061 1.62723 4.68655C0.869567 6.72249 1.45735 9.01488 3.10118 10.4351C3.79425 9.20984 5.09235 8.45168 6.5 8.44997ZM6.5 7.79997C5.06407 7.79997 3.90003 6.63591 3.90003 5.19998C3.90003 3.76405 5.06407 2.59999 6.5 2.59999C7.93593 2.59999 9.09997 3.76405 9.09997 5.19998C9.09997 5.88954 8.82605 6.55086 8.33846 7.03845C7.85087 7.52604 7.18956 7.79997 6.5 7.79997ZM6.5 3.89998C5.78204 3.89998 5.20001 4.48201 5.20001 5.19998C5.20001 5.91795 5.78204 6.49997 6.5 6.49997C7.21796 6.49997 7.79999 5.91795 7.79999 5.19998C7.79999 4.48201 7.21796 3.89998 6.5 3.89998Z" fill="#030303"/>
</svg>
