<svg width="13" height="13" viewBox="0 0 13 13" fill="none" xmlns="http://www.w3.org/2000/svg">
<path fill-rule="evenodd" clip-rule="evenodd" d="M10.6884 9.70907C10.6341 9.71028 10.5798 9.71089 10.5252 9.71089C6.52885 9.71089 3.28913 6.47118 3.28913 2.47479C3.28913 2.42026 3.28974 2.36586 3.29094 2.3116C2.0867 3.27637 1.31565 4.75969 1.31565 6.42173C1.31565 9.3282 3.67181 11.6843 6.57827 11.6843C8.24031 11.6843 9.72362 10.9133 10.6884 9.70907ZM11.4897 8.31707C11.1758 8.36849 10.8536 8.39523 10.5252 8.39523C7.25546 8.39523 4.60479 5.74456 4.60479 2.47479C4.60479 2.14637 4.63153 1.8242 4.68295 1.51033C4.76987 0.979852 4.92728 0.473097 5.14527 0C4.57865 0.125882 4.03953 0.324844 3.53834 0.586483C1.43548 1.68423 0 3.88535 0 6.42173C0 10.0548 2.94519 13 6.57827 13C9.11465 13 11.3158 11.5645 12.4135 9.46169C12.6752 8.96049 12.8741 8.42138 13 7.85476C12.5269 8.07275 12.0201 8.23016 11.4897 8.31707Z" fill="black"/>
</svg>
