<svg width="13" height="13" viewBox="0 0 13 13" fill="none" xmlns="http://www.w3.org/2000/svg">
<path d="M7.15 13H5.85V11.05H7.15V13ZM10.6366 11.5557L9.25795 10.177L10.177 9.25795L11.5564 10.6372L10.6379 11.5557H10.6366ZM2.3634 11.5557L1.44365 10.6366L2.82165 9.2573L3.7414 10.1764L2.3634 11.555V11.5557ZM6.5 9.75455C4.70273 9.75383 3.24627 8.2964 3.24675 6.49913C3.24723 4.70186 4.70446 3.24521 6.50173 3.24545C8.299 3.24569 9.75585 4.70273 9.75585 6.5C9.75406 8.2972 8.2972 9.75348 6.5 9.75455ZM6.5 4.54545C5.4207 4.54617 4.54627 5.42157 4.54675 6.50087C4.54723 7.58016 5.42243 8.45479 6.50173 8.45455C7.58103 8.45431 8.45585 7.5793 8.45585 6.5C8.45477 5.42047 7.57953 4.54581 6.5 4.54545ZM13 7.15H11.05V5.85H13V7.15ZM1.95 7.15H0V5.85H1.95V7.15ZM10.1764 3.7427L9.25795 2.82295L10.6366 1.44365L11.5564 2.3634L10.177 3.74205L10.1764 3.7427ZM2.82295 3.7427L1.44495 2.36405L2.3647 1.44495L3.7427 2.82425L2.8236 3.74205L2.82295 3.7427ZM7.15 1.95H5.85V0H7.15V1.95Z" fill="black"/>
</svg>
