<svg width="12" height="12" viewBox="0 0 12 12" fill="none" xmlns="http://www.w3.org/2000/svg">
<path d="M1.33333 7.05C1.33333 6.30549 1.33333 5.93323 1.43122 5.63197C1.62905 5.02309 2.10642 4.54572 2.71529 4.34789C3.01656 4.25 3.38882 4.25 4.13333 4.25H7.86666C8.61117 4.25 8.98343 4.25 9.2847 4.34789C9.89357 4.54572 10.3709 5.02309 10.5688 5.63197C10.6667 5.93323 10.6667 6.30549 10.6667 7.05V7.05C10.6667 8.16677 10.6667 8.72515 10.5198 9.17705C10.2231 10.0904 9.50703 10.8064 8.59371 11.1032C8.14181 11.25 7.58343 11.25 6.46666 11.25H5.53333C4.41656 11.25 3.85817 11.25 3.40628 11.1032C2.49296 10.8064 1.77691 10.0904 1.48016 9.17705C1.33333 8.72515 1.33333 8.16677 1.33333 7.05V7.05Z" stroke="black" stroke-width="1.3"/>
<path d="M8.33332 3.66667V3.08333C8.33332 1.79467 7.28865 0.75 5.99999 0.75V0.75C4.71133 0.75 3.66666 1.79467 3.66666 3.08333V3.66667" stroke="black" stroke-width="1.3" stroke-linecap="round"/>
<circle cx="5.99999" cy="7.74992" r="1.16667" fill="black"/>
</svg>
