<svg width="11" height="13" viewBox="0 0 11 13" fill="none" xmlns="http://www.w3.org/2000/svg">
<path d="M5.5 13C4.74061 13 4.125 12.418 4.125 11.7H6.875C6.875 12.418 6.25939 13 5.5 13ZM11 11.05H0V9.75L1.375 9.1V5.525C1.375 3.2747 2.35194 1.81545 4.125 1.417V0H6.875V1.417C8.64806 1.8148 9.625 3.2734 9.625 5.525V9.1L11 9.75V11.05ZM5.5 2.4375C4.66102 2.38628 3.85191 2.74123 3.35156 3.38C2.92363 4.01996 2.71366 4.76865 2.75 5.525V9.75H8.25V5.525C8.2863 4.76865 8.07633 4.01998 7.64844 3.38C7.14809 2.74123 6.33898 2.38628 5.5 2.4375Z" fill="black"/>
</svg>
