<svg width="15" height="13" viewBox="0 0 15 13" fill="none" xmlns="http://www.w3.org/2000/svg">
<path d="M5.25 0C3.17893 0 1.5 1.61675 1.5 3.61111C1.5 5.60547 3.17893 7.22222 5.25 7.22222C7.32107 7.22222 9 5.60547 9 3.61111C9 1.61675 7.32107 0 5.25 0ZM3 3.61111C3 2.41449 4.00736 1.44444 5.25 1.44444C6.49264 1.44444 7.5 2.41449 7.5 3.61111C7.5 4.80773 6.49264 5.77778 5.25 5.77778C4.00736 5.77778 3 4.80773 3 3.61111Z" fill="black"/>
<path d="M11.1813 3.76876C10.9703 3.66516 10.7368 3.61115 10.5 3.61115V2.16671C10.9737 2.16671 11.4407 2.27468 11.8627 2.48188C11.9092 2.5047 11.9549 2.52865 12 2.5537C12.364 2.7561 12.6804 3.03022 12.928 3.35873C13.2062 3.72791 13.3897 4.15528 13.4634 4.60588C13.5372 5.05647 13.499 5.51747 13.3522 5.95115C13.2053 6.38483 12.9539 6.77886 12.6185 7.10098C12.2831 7.42311 11.8733 7.66418 11.4226 7.80445C11.0215 7.92928 10.5981 7.97114 10.1802 7.92798C10.1284 7.92264 10.0768 7.91599 10.0253 7.90804C9.55785 7.83591 9.11481 7.65829 8.73234 7.3897L8.73156 7.38915L9.61578 6.22235C9.8071 6.3568 10.0288 6.44567 10.2626 6.48176C10.4965 6.51785 10.7359 6.5001 10.9613 6.42996C11.1866 6.35983 11.3915 6.2393 11.5592 6.07824C11.7269 5.91718 11.8526 5.72017 11.9261 5.50334C11.9995 5.28651 12.0185 5.05601 11.9817 4.83072C11.9448 4.60543 11.8531 4.39175 11.714 4.20717C11.5748 4.02259 11.3923 3.87235 11.1813 3.76876Z" fill="black"/>
<path d="M13.4986 13C13.4986 12.6208 13.421 12.2453 13.2703 11.895C13.1196 11.5447 12.8988 11.2263 12.6203 10.9582C12.3419 10.6901 12.0113 10.4774 11.6475 10.3323C11.2837 10.1872 10.8938 10.1125 10.5 10.1125V8.66667C11.0116 8.66667 11.5188 8.75066 12 8.91449C12.0747 8.93992 12.1487 8.96727 12.2221 8.99652C12.768 9.21429 13.2641 9.53348 13.682 9.93587C14.0998 10.3383 14.4313 10.816 14.6575 11.3417C14.6878 11.4123 14.7162 11.4836 14.7426 11.5556C14.9128 12.0189 15 12.5074 15 13H13.4986Z" fill="black"/>
<path d="M10.5 13H9C9 11.0056 7.32107 9.38889 5.25 9.38889C3.17893 9.38889 1.5 11.0056 1.5 13H0C0 10.2079 2.35051 7.94444 5.25 7.94444C8.1495 7.94444 10.5 10.2079 10.5 13Z" fill="black"/>
</svg>
